<svg height="512pt" viewBox="0 0 512.001 512" width="512pt" xmlns="http://www.w3.org/2000/svg"><path d="m232.207031 231.398438-23.5-8.507813c-37.078125-12.953125-78.980469-3.378906-106.753906 24.394531l-89.699219 89.699219c-6.210937 6.210937-6.210937 16.285156 0 22.496094 6.210938 6.214843 16.285156 6.214843 22.496094 0 11.5-11.496094 78.839844-78.835938 89.699219-89.699219 3.722656-3.722656 7.816406-6.964844 12.175781-9.71875l28.316406-10.359375c11.027344-1.550781 22.449219-.558594 33.273438 3.222656l47.402344 16.859375zm0 0" fill="#d665d3"/><path d="m37.921875 336.984375 89.703125-89.699219c16.429688-16.429687 37.804688-26.488281 60.203125-29.285156-31.167969-3.910156-63.222656 6.632812-85.875 29.285156l-89.699219 89.699219c-6.210937 6.210937-6.210937 16.285156 0 22.496094 6.210938 6.214843 16.285156 6.214843 22.496094 0 .476562-.472657 1.054688-1.050781 1.710938-1.710938-4.6875-6.230469-4.210938-15.113281 1.460937-20.785156zm0 0" fill="#c64ac6"/><path d="m499.953125 153.113281c-6.210937-6.214843-16.285156-6.214843-22.496094 0-9.539062 9.539063-79.820312 79.820313-89.699219 89.699219-3.722656 3.722656-7.816406 6.964844-12.175781 9.71875l-28.316406 10.359375c-11.027344 1.554687-22.449219.5625-33.273437-3.222656l-47.402344-16.859375 13.410156 38.386718 23.496094 8.511719c37.078125 12.953125 78.984375 3.378907 106.757812-24.398437l89.699219-89.699219c6.214844-6.210937 6.214844-16.285156 0-22.496094zm0 0" fill="#d665d3"/><path d="m318.519531 276.039062-20.554687-7.445312c-1.859375-.675781-3.320313-2.152344-3.972656-4.019531l-4.792969-13.722657-22.605469-8.042968 13.410156 38.386718 23.496094 8.511719c37.078125 12.953125 78.980469 3.378907 106.753906-24.398437l4.574219-4.570313c-27.203125 20.621094-63.625 26.714844-96.308594 15.300781zm0 0" fill="#c64ac6"/><path d="m359.289062 12.449219c-6.214843-6.214844-16.285156-6.214844-22.5 0l-89.699218 89.699219c-27.773438 27.773437-37.347656 69.675781-24.394532 106.757812l36.78125 105.28125c3.78125 10.824219 4.773438 22.246094 3.21875 33.273438l-10.359374 28.316406c-2.753907 4.359375-5.996094 8.453125-9.71875 12.175781-10.113282 10.113281-78.984376 78.984375-89.699219 89.699219-6.210938 6.210937-6.210938 16.285156 0 22.496094 6.210937 6.214843 16.285156 6.214843 22.496093 0l89.703126-89.699219c27.769531-27.773438 37.347656-69.675781 24.394531-106.757813l-36.78125-105.28125c-3.78125-10.824218-4.773438-22.246094-3.222657-33.273437l10.363282-28.316407c2.753906-4.359374 5.996094-8.453124 9.714844-12.175781 17.371093-17.371093 71.234374-71.230469 89.703124-89.699219 6.210938-6.214843 6.210938-16.285156 0-22.496093zm0 0" fill="#e274e2"/><path d="m278.105469 295.519531c-.214844-.683593-.441407-1.363281-.675781-2.039062l-36.78125-105.28125c-10.75-30.777344-5.96875-64.871094 11.851562-91.457031l-5.410156 5.40625c-27.949219 27.949218-37.429688 69.4375-24.394532 106.753906l36.78125 105.28125c3.78125 10.828125 4.773438 22.25 3.222657 33.277344l-10.191407 27.851562c3.734376-3.734375 6.554688-6.558594 8.0625-8.066406 3.722657-3.722656 6.964844-7.8125 9.71875-12.175782l6.546876-17.890624c4.902343-13.386719 5.554687-28.0625 1.269531-41.660157zm0 0" fill="#d665d3"/><path d="m154.167969 465.902344-107.667969-107.671875c-6.214844-6.210938-6.214844-16.285157 0-22.496094 6.210938-6.210937 16.285156-6.210937 22.496094 0l107.671875 107.671875c6.210937 6.210938 6.210937 16.285156 0 22.496094-6.214844 6.210937-16.285157 6.210937-22.5 0zm0 0" fill="#00c3ff"/><path d="m73.753906 358.230469c-5.398437-5.394531-6.101562-13.699219-2.125-19.859375l-2.632812-2.636719c-6.214844-6.210937-16.285156-6.210937-22.496094 0-6.214844 6.210937-6.214844 16.285156 0 22.496094l107.667969 107.671875c6.210937 6.210937 16.285156 6.210937 22.496093 0 .816407-.816406 1.519532-1.703125 2.121094-2.636719zm0 0" fill="#00aaf0"/><path d="m199.664062 420.410156-107.671874-107.671875c-6.210938-6.214843-6.210938-16.285156 0-22.496093 6.214843-6.214844 16.285156-6.214844 22.496093 0l107.671875 107.667968c6.210938 6.214844 6.210938 16.285156 0 22.496094-6.210937 6.214844-16.285156 6.214844-22.496094.003906zm0 0" fill="#00c3ff"/><path d="m119.246094 312.738281c-5.398438-5.394531-6.097656-13.699219-2.121094-19.863281l-2.636719-2.632812c-6.210937-6.214844-16.285156-6.214844-22.496093 0-6.214844 6.210937-6.214844 16.28125 0 22.496093l107.667968 107.667969c6.214844 6.214844 16.285156 6.214844 22.5 0 .816406-.8125 1.519532-1.699219 2.121094-2.632812zm0 0" fill="#00aaf0"/><path d="m245.1875 374.195312-104.070312-104.074218c-6.007813-6.003906-6.007813-15.742188 0-21.746094 6.003906-6.003906 15.738281-6.003906 21.742187 0l104.074219 104.074219c6.003906 6.003906 6.003906 15.742187 0 21.746093-6.003906 6.003907-15.738282 6.003907-21.746094 0zm0 0" fill="#00c3ff"/><path d="m167.457031 270.121094c-5.214843-5.214844-5.894531-13.242188-2.046875-19.199219l-2.550781-2.546875c-6.003906-6.003906-15.738281-6.003906-21.742187 0-6.007813 6.003906-6.007813 15.738281 0 21.746094l104.070312 104.070312c6.007812 6.007813 15.742188 6.007813 21.746094 0 .789062-.789062 1.46875-1.644531 2.050781-2.546875zm0 0" fill="#00aaf0"/><path d="m352.035156 264.683594-103.863281-102.121094c-5.992187-5.890625-5.992187-15.445312 0-21.339844 5.992187-5.890625 15.710937-5.890625 21.703125 0l103.863281 102.125c5.992188 5.890625 5.992188 15.445313 0 21.335938-5.996093 5.894531-15.710937 5.894531-21.703125 0zm0 0" fill="#00c3ff"/><path d="m274.460938 162.5625c-5.207032-5.117188-5.882813-12.996094-2.046876-18.839844l-2.542968-2.5c-5.992188-5.890625-15.707032-5.890625-21.699219 0-5.992187 5.894532-5.992187 15.449219 0 21.339844l103.863281 102.121094c5.992188 5.894531 15.707032 5.894531 21.699219 0 .789063-.773438 1.464844-1.613282 2.046875-2.496094zm0 0" fill="#00aaf0"/><path d="m397.71875 222.265625-107.671875-107.671875c-6.210937-6.210938-6.210937-16.285156 0-22.496094 6.214844-6.210937 16.285156-6.210937 22.5 0l107.667969 107.667969c6.214844 6.214844 6.214844 16.285156 0 22.5-6.210938 6.210937-16.285156 6.210937-22.496094 0zm0 0" fill="#00c3ff"/><path d="m317.300781 114.59375c-5.398437-5.394531-6.097656-13.699219-2.121093-19.859375l-2.636719-2.636719c-6.210938-6.210937-16.285157-6.210937-22.496094 0-6.210937 6.210938-6.210937 16.285156 0 22.496094l107.671875 107.671875c6.210938 6.210937 16.28125 6.210937 22.496094 0 .816406-.816406 1.519531-1.703125 2.121094-2.636719zm0 0" fill="#00aaf0"/><path d="m443.210938 176.773438-107.667969-107.671876c-6.214844-6.214843-6.214844-16.285156 0-22.496093 6.210937-6.214844 16.285156-6.214844 22.496093 0l107.667969 107.667969c6.214844 6.214843 6.214844 16.285156 0 22.496093-6.210937 6.214844-16.28125 6.214844-22.496093.003907zm0 0" fill="#00c3ff"/><path d="m362.792969 69.101562c-5.394531-5.394531-6.097657-13.699218-2.121094-19.863281l-2.632813-2.632812c-6.214843-6.214844-16.285156-6.214844-22.5 0-6.210937 6.210937-6.210937 16.28125 0 22.496093l107.671876 107.667969c6.210937 6.214844 16.285156 6.214844 22.496093 0 .816407-.8125 1.519531-1.699219 2.121094-2.632812zm0 0" fill="#00aaf0"/><path d="m472.050781 147.511719-1.195312 1.195312-42.953125-42.949219c-2.929688-2.929687-7.675782-2.929687-10.605469 0-2.929687 2.929688-2.929687 7.675782 0 10.605469l43.003906 43.007813c3.261719 3.257812 3.289063 8.597656 0 11.886718-3.207031 3.210938-8.570312 3.320313-11.890625 0l-107.667968-107.671874c-2.984376-2.980469-3.296876-7.746094-.6875-11.097657 3.09375-3.976562 9.011718-4.355469 12.574218-.789062l39.914063 39.914062c2.933593 2.929688 7.679687 2.929688 10.609375 0 2.929687-2.929687 2.929687-7.679687 0-10.609375l-39.859375-39.859375 1.195312-1.195312c9.125-9.125 9.125-23.976563 0-33.105469-9.125-9.125-23.976562-9.125-33.105469 0l-89.699218 89.699219c-29.796875 29.796875-40.070313 74.753906-26.171875 114.535156l2.378906 6.8125-6.8125-2.382813c-39.78125-13.898437-84.738281-3.621093-114.535156 26.171876l-89.699219 89.699218c-9.125 9.128906-9.125 23.980469 0 33.105469 4.566406 4.566406 10.558594 6.847656 16.554688 6.847656 5.992187 0 11.988281-2.28125 16.554687-6.847656l1.195313-1.191406 107.558593 107.558593-1.195312 1.195313c-9.125 9.128906-9.125 23.980469 0 33.105469 9.128906 9.125 23.976562 9.125 33.105469 0l50.191406-50.191406c2.929687-2.929688 2.929687-7.675782 0-10.605469-2.929688-2.929688-7.679688-2.929688-10.609375 0l-50.1875 50.1875c-3.28125 3.28125-8.597657 3.292969-11.890625 0-3.277344-3.273438-3.277344-8.609375 0-11.886719l4.996094-5c7.359374.703125 14.632812-2.132812 19.605468-7.652344 4.429688-4.910156 6.5-11.378906 5.898438-17.847656l19.992187-19.992188c6.914063.65625 13.804688-1.820312 18.726563-6.730468.007812-.007813.015625-.011719.023437-.019532.007813-.007812.011719-.015624.019531-.023437 4.910157-4.921875 7.390626-11.796875 6.730469-18.726563l13.707031-13.707031c3.15625-3.160156 6.054688-6.613281 8.644532-10.300781 5.472656-.917969 10.605468-3.878906 14.210937-8.296875h.003907c7.246093-8.875 6.8125-21.464844-.226563-29.824219 1.042969-11.222656-.320313-22.597656-4-33.125-8.054687-23.058594-28.59375-81.847656-36.777344-105.277344-12.011719-34.378906-3.132812-73.230468 22.617188-98.980468l89.699219-89.699219c3.292968-3.292969 8.609374-3.28125 11.890624 0 3.277344 3.277344 3.277344 8.609375 0 11.886719l-4.996093 5c-8.085938-.777344-16.234375 2.742187-21.214844 9.652344-3.394531 4.714843-4.796875 10.351562-4.289063 15.847656l-19.992187 19.996094c-6.988281-.675782-13.867187 1.871093-18.75 6.75-4.914063 4.917968-7.410156 11.796874-6.75 18.746093l-13.707031 13.710938c-3.15625 3.15625-6.054688 6.609375-8.640625 10.296875-6.496094 1.097656-12.339844 4.890625-15.984375 10.832031-5.285156 8.597656-4.4375 19.648437 1.992187 27.289063-1.042969 11.222656.320313 22.601562 4 33.125l36.777344 105.28125c12.011719 34.378906 3.132813 73.230468-22.617187 98.976562l-14.757813 14.761719c-2.929687 2.929687-2.929687 7.675781 0 10.605469 2.929687 2.929687 7.675781 2.929687 10.605469 0l14.757812-14.757813c29.796875-29.796875 40.070313-74.753906 26.171875-114.53125l-2.378906-6.8125 6.8125 2.378906c11.773437 4.113281 23.992187 6.109375 36.144531 6.105469 28.914063 0 57.410156-11.300781 78.390625-32.277344l89.699219-89.699218c9.125-9.128907 9.125-23.980469 0-33.105469-9.128906-9.125-23.980469-9.125-33.105469 0zm-300.769531 312.765625c-.007812.007812-.015625.015625-.023438.023437-.007812.007813-.019531.015625-.027343.023438-3.234375 3.203125-8.558594 3.277343-11.859375-.023438l-107.671875-107.671875c-3.292969-3.292968-3.246094-8.640625 0-11.886718 3.1875-3.191407 8.550781-3.34375 11.890625 0l107.671875 107.667968c3.300781 3.304688 3.234375 8.625.019531 11.867188zm10.53125-22.527344-107.558594-107.5625 12.386719-12.386719 107.558594 107.5625zm34.941406-22.941406c-3.21875 3.21875-8.578125 3.3125-11.890625 0l-107.671875-107.671875c-3.53125-3.53125-3.234375-9.4375.78125-12.570313 3.28125-2.566406 8.082032-2.347656 11.109375.683594l107.671875 107.667969c3.292969 3.292969 3.238282 8.648437 0 11.890625zm20.457032-32.457032-9.90625 9.90625-107.558594-107.5625c10.953125-10.953124 10.699218-10.761718 12.894531-12.683593.914063 1.4375 1.988281 2.789062 3.222656 4.023437l100.101563 100.101563c1.246094 1.246093 2.605468 2.308593 4.035156 3.210937-.902344 1.03125-1.824219 2.039063-2.789062 3.003906zm21.253906-16.824218c-3.277344 3.277344-8.628906 3.265625-11.890625 0l-100.101563-100.101563c-3.148437-3.148437-3.191406-8.058593-.566406-11.261719 1.554688-1.898437 3.882812-3.089843 6.507812-3.089843 3.851563 0 5.777344 2.292969 7.117188 3.636719l98.929688 98.929687c3.28125 3.277344 3.28125 8.609375.003906 11.886719zm-20.839844-91.148438 14.667969 41.984375c1.449219 4.152344 2.425781 8.476563 2.976562 12.867188l-72.5-72.5c4.394531.550781 8.714844 1.527343 12.871094 2.980469zm-6.324219-18.101562-30.714843-10.730469c-10.523438-3.675781-21.898438-5.042969-33.121094-3.996094-3.6875-3.089843-8.15625-4.945312-12.894532-5.375-.082031-.007812-.164062-.011719-.242187-.019531-6.992187-.5625-13.621094 1.929688-18.464844 6.773438-3.382812 3.382812-5.699219 7.753906-6.519531 12.609374-6.882812 4.828126-9.242188 7.582032-24.007812 22.351563-7.183594-.683594-14.003907 2.003906-18.75 6.75-4.808594 4.808594-7.417969 11.582031-6.753907 18.75l-19.992187 19.992187c-7.421875-.710937-15.09375 2.191407-20.226563 8.386719-3.984375 4.808594-5.855469 10.976563-5.273437 17.113281l-4.996094 5c-3.277344 3.277344-8.609375 3.28125-11.890625 0-3.277344-3.277343-3.277344-8.613281 0-11.890624l89.699219-89.699219c18.132812-18.132813 42.753906-27.898438 67.742187-27.898438 10.5 0 21.066407 1.726563 31.234375 5.277344l18.085938 6.316406c.78125 2.238281 6.324218 18.105469 7.085937 20.289063zm98.886719-182.027344 107.5625 107.5625-12.390625 12.386719-107.558594-107.558594zm-34.941406 22.941406c3.230468-3.230468 8.59375-3.296875 11.890625 0l107.671875 107.671875c3.25 3.25 3.292968 8.566407 0 11.890625-3.21875 3.238282-8.574219 3.3125-11.890625 0l-107.667969-107.671875c-3.335938-3.335937-3.199219-8.691406-.003906-11.890625zm-20.457032 32.460938 9.90625-9.90625 107.5625 107.558594-9.90625 9.90625c-.960937.960937-1.964843 1.882812-2.992187 2.78125-.914063-1.4375-1.988281-2.789063-3.222656-4.023438l-100.101563-100.105469c-1.234375-1.234375-2.585937-2.308593-4.023437-3.222656.898437-1.027344 1.816406-2.03125 2.777343-2.988281zm-21.25 28.707031c-3.082031-3.082031-3.257812-7.953125-.585937-11.238281.003906-.003906.007813-.007813.007813-.011719 3.179687-3.898437 8.996093-4.109375 12.464843-.636719l100.105469 100.101563c3.300781 3.304687 3.238281 8.648437-.003906 11.890625-3.285156 3.285156-8.601563 3.285156-11.886719-.003906l-1.171875-1.171876c-5.574219-5.574218-93.351562-93.347656-98.929688-98.929687zm6.167969 37.277344c-1.449219-4.152344-2.425781-8.472657-2.976562-12.867188l72.5 72.5c-4.394531-.550781-8.714844-1.527343-12.867188-2.976562l-41.988281-14.667969zm234.839844-25.628907-89.699219 89.699219c-25.75 25.75-64.605468 34.625-98.980468 22.617188l-18.082032-6.316407-7.085937-20.285156 30.714843 10.730469c10.527344 3.679687 21.898438 5.042969 33.121094 3.996094 9.171875 7.734375 22.925782 7.296875 31.601563-1.378907 3.316406-3.3125 5.683593-7.65625 6.523437-12.609374 3.6875-2.589844 7.140625-5.484376 10.296875-8.640626l13.707031-13.707031c6.730469.621094 13.640626-1.640625 18.753907-6.753906 4.832031-4.835937 7.410156-11.617187 6.75-18.75l19.992187-19.992187c7.660156.726562 14.835938-2.359376 19.605469-7.65625 4.261719-4.730469 6.519531-11.121094 5.898437-17.847657l4.996094-4.996093c3.277344-3.277344 8.609375-3.277344 11.886719 0 3.277344 3.28125 3.277344 8.613281 0 11.890624zm0 0"/></svg>